<mxfile host="Electron" agent="Mozilla/5.0 (Macintosh; Intel Mac OS X 10_15_7) AppleWebKit/537.36 (KHTML, like Gecko) draw.io/26.1.1 Chrome/132.0.6834.210 Electron/34.3.3 Safari/537.36" version="26.1.1">
  <diagram name="Page-1" id="jZUTGKunKLc5b6uqHfSp">
    <mxGraphModel dx="1434" dy="808" grid="1" gridSize="10" guides="1" tooltips="1" connect="1" arrows="1" fold="1" page="1" pageScale="1" pageWidth="827" pageHeight="1169" math="0" shadow="0">
      <root>
        <mxCell id="0" />
        <mxCell id="1" parent="0" />
        <mxCell id="C0GWXP0qGfgbLmXqxW7u-2" value="" style="rounded=0;whiteSpace=wrap;html=1;fillColor=none;dashed=1;strokeColor=#B3B3B3;" vertex="1" parent="1">
          <mxGeometry x="140" y="140" width="160" height="540" as="geometry" />
        </mxCell>
        <mxCell id="C0GWXP0qGfgbLmXqxW7u-3" value="Sources" style="rounded=0;whiteSpace=wrap;html=1;fontSize=24;strokeColor=none;" vertex="1" parent="1">
          <mxGeometry x="160" y="120" width="120" height="30" as="geometry" />
        </mxCell>
        <mxCell id="C0GWXP0qGfgbLmXqxW7u-4" value="Data Warehouse" style="rounded=0;whiteSpace=wrap;html=1;fontSize=24;strokeColor=none;" vertex="1" parent="1">
          <mxGeometry x="497" y="121" width="330" height="30" as="geometry" />
        </mxCell>
        <mxCell id="C0GWXP0qGfgbLmXqxW7u-5" value="" style="rounded=0;whiteSpace=wrap;html=1;fillColor=none;dashed=1;strokeColor=#B3B3B3;" vertex="1" parent="1">
          <mxGeometry x="360" y="140" width="580" height="540" as="geometry" />
        </mxCell>
        <mxCell id="C0GWXP0qGfgbLmXqxW7u-6" value="" style="rounded=0;whiteSpace=wrap;html=1;fillColor=none;dashed=1;strokeColor=light-dark(#696969,#261D00);" vertex="1" parent="1">
          <mxGeometry x="1010" y="140" width="160" height="540" as="geometry" />
        </mxCell>
        <mxCell id="C0GWXP0qGfgbLmXqxW7u-7" value="Consume" style="rounded=0;whiteSpace=wrap;html=1;fontSize=24;strokeColor=none;" vertex="1" parent="1">
          <mxGeometry x="1030" y="120" width="120" height="30" as="geometry" />
        </mxCell>
        <mxCell id="C0GWXP0qGfgbLmXqxW7u-8" value="Silver Layer" style="rounded=0;whiteSpace=wrap;html=1;fontSize=20;fillColor=#f5f5f5;fontColor=#333333;strokeColor=#666666;" vertex="1" parent="1">
          <mxGeometry x="570" y="160" width="150" height="40" as="geometry" />
        </mxCell>
        <mxCell id="C0GWXP0qGfgbLmXqxW7u-9" value="Bronze Layer" style="rounded=0;whiteSpace=wrap;html=1;fillColor=#ffe6cc;strokeColor=#d79b00;fontSize=20;" vertex="1" parent="1">
          <mxGeometry x="380" y="160" width="150" height="40" as="geometry" />
        </mxCell>
        <mxCell id="C0GWXP0qGfgbLmXqxW7u-10" value="" style="rounded=0;whiteSpace=wrap;html=1;fillColor=none;strokeColor=#FFCE9F;" vertex="1" parent="1">
          <mxGeometry x="380" y="220" width="150" height="440" as="geometry" />
        </mxCell>
        <mxCell id="C0GWXP0qGfgbLmXqxW7u-11" value="" style="rounded=0;whiteSpace=wrap;html=1;fillColor=none;strokeColor=#8F8F8F;" vertex="1" parent="1">
          <mxGeometry x="570" y="220" width="150" height="440" as="geometry" />
        </mxCell>
        <mxCell id="C0GWXP0qGfgbLmXqxW7u-13" value="Gold Layer" style="rounded=0;whiteSpace=wrap;html=1;fontSize=20;fillColor=#fff2cc;strokeColor=#d6b656;" vertex="1" parent="1">
          <mxGeometry x="750" y="160" width="150" height="40" as="geometry" />
        </mxCell>
        <mxCell id="C0GWXP0qGfgbLmXqxW7u-14" value="" style="rounded=0;whiteSpace=wrap;html=1;fillColor=none;strokeColor=light-dark(#ffdc42, #261d00);" vertex="1" parent="1">
          <mxGeometry x="750" y="220" width="150" height="440" as="geometry" />
        </mxCell>
        <mxCell id="C0GWXP0qGfgbLmXqxW7u-15" value="CRM" style="image;aspect=fixed;html=1;points=[];align=center;fontSize=12;image=img/lib/azure2/general/Folder_Blank.svg;" vertex="1" parent="1">
          <mxGeometry x="186" y="280" width="69" height="56.00000000000001" as="geometry" />
        </mxCell>
        <mxCell id="C0GWXP0qGfgbLmXqxW7u-16" value="" style="image;aspect=fixed;html=1;points=[];align=center;fontSize=12;image=img/lib/azure2/general/Media_File.svg;" vertex="1" parent="1">
          <mxGeometry x="240" y="310" width="32.5" height="40" as="geometry" />
        </mxCell>
        <mxCell id="C0GWXP0qGfgbLmXqxW7u-17" value="ERP" style="image;aspect=fixed;html=1;points=[];align=center;fontSize=12;image=img/lib/azure2/general/Folder_Blank.svg;" vertex="1" parent="1">
          <mxGeometry x="185.5" y="390" width="69" height="56.00000000000001" as="geometry" />
        </mxCell>
        <mxCell id="C0GWXP0qGfgbLmXqxW7u-18" value="" style="image;aspect=fixed;html=1;points=[];align=center;fontSize=12;image=img/lib/azure2/general/Media_File.svg;" vertex="1" parent="1">
          <mxGeometry x="240" y="430" width="32.5" height="40" as="geometry" />
        </mxCell>
        <mxCell id="C0GWXP0qGfgbLmXqxW7u-22" value="" style="endArrow=none;html=1;rounded=0;fillColor=#f5f5f5;strokeColor=#696969;" edge="1" parent="1">
          <mxGeometry width="50" height="50" relative="1" as="geometry">
            <mxPoint x="165" y="530" as="sourcePoint" />
            <mxPoint x="275" y="530" as="targetPoint" />
          </mxGeometry>
        </mxCell>
        <mxCell id="C0GWXP0qGfgbLmXqxW7u-23" value="Object Type: CSV Files&lt;div&gt;Interface: Files in Folder&lt;/div&gt;" style="text;html=1;align=center;verticalAlign=middle;whiteSpace=wrap;rounded=0;" vertex="1" parent="1">
          <mxGeometry x="150" y="540" width="140" height="30" as="geometry" />
        </mxCell>
        <mxCell id="C0GWXP0qGfgbLmXqxW7u-24" value="" style="html=1;verticalLabelPosition=bottom;align=center;labelBackgroundColor=#ffffff;verticalAlign=top;strokeWidth=2;strokeColor=#d79b00;shadow=0;dashed=0;shape=mxgraph.ios7.icons.data;fillColor=#ffe6cc;" vertex="1" parent="1">
          <mxGeometry x="420" y="230" width="70" height="90" as="geometry" />
        </mxCell>
        <mxCell id="C0GWXP0qGfgbLmXqxW7u-25" value="" style="html=1;verticalLabelPosition=bottom;align=center;labelBackgroundColor=#ffffff;verticalAlign=top;strokeWidth=2;strokeColor=#d6b656;shadow=0;dashed=0;shape=mxgraph.ios7.icons.data;fillColor=#fff2cc;" vertex="1" parent="1">
          <mxGeometry x="790" y="230" width="70" height="90" as="geometry" />
        </mxCell>
        <mxCell id="C0GWXP0qGfgbLmXqxW7u-26" value="" style="html=1;verticalLabelPosition=bottom;align=center;labelBackgroundColor=#ffffff;verticalAlign=top;strokeWidth=2;strokeColor=#666666;shadow=0;dashed=0;shape=mxgraph.ios7.icons.data;fillColor=#f5f5f5;fontColor=#333333;" vertex="1" parent="1">
          <mxGeometry x="615" y="230" width="70" height="90" as="geometry" />
        </mxCell>
        <mxCell id="C0GWXP0qGfgbLmXqxW7u-29" value="" style="shape=singleArrow;whiteSpace=wrap;html=1;fillColor=#dae8fc;strokeColor=#6c8ebf;" vertex="1" parent="1">
          <mxGeometry x="710" y="380" width="70" height="40" as="geometry" />
        </mxCell>
        <mxCell id="C0GWXP0qGfgbLmXqxW7u-32" value="Raw Data" style="text;html=1;align=center;verticalAlign=middle;whiteSpace=wrap;rounded=0;" vertex="1" parent="1">
          <mxGeometry x="420" y="330" width="60" height="30" as="geometry" />
        </mxCell>
        <mxCell id="C0GWXP0qGfgbLmXqxW7u-33" value="Cleaned, Standardised Data" style="text;html=1;align=center;verticalAlign=middle;whiteSpace=wrap;rounded=0;" vertex="1" parent="1">
          <mxGeometry x="620" y="330" width="60" height="30" as="geometry" />
        </mxCell>
        <mxCell id="C0GWXP0qGfgbLmXqxW7u-34" value="Business Ready Data" style="text;html=1;align=center;verticalAlign=middle;whiteSpace=wrap;rounded=0;" vertex="1" parent="1">
          <mxGeometry x="790" y="330" width="90" height="30" as="geometry" />
        </mxCell>
        <mxCell id="C0GWXP0qGfgbLmXqxW7u-35" value="" style="shape=singleArrow;whiteSpace=wrap;html=1;fillColor=#dae8fc;strokeColor=#6c8ebf;" vertex="1" parent="1">
          <mxGeometry x="520" y="380" width="70" height="40" as="geometry" />
        </mxCell>
        <mxCell id="C0GWXP0qGfgbLmXqxW7u-36" value="" style="shape=singleArrow;whiteSpace=wrap;html=1;fillColor=#dae8fc;strokeColor=#6c8ebf;" vertex="1" parent="1">
          <mxGeometry x="290" y="380" width="100" height="40" as="geometry" />
        </mxCell>
        <mxCell id="C0GWXP0qGfgbLmXqxW7u-37" value="" style="shape=singleArrow;whiteSpace=wrap;html=1;fillColor=#dae8fc;strokeColor=#6c8ebf;" vertex="1" parent="1">
          <mxGeometry x="930" y="380" width="90" height="40" as="geometry" />
        </mxCell>
        <mxCell id="C0GWXP0qGfgbLmXqxW7u-38" value="Object Type: Table&lt;div&gt;Load:&lt;/div&gt;&lt;div style=&quot;&quot;&gt;&lt;ul&gt;&lt;li&gt;Batch processing&lt;/li&gt;&lt;li&gt;&lt;span style=&quot;background-color: transparent; color: light-dark(rgb(0, 0, 0), rgb(255, 255, 255));&quot;&gt;Full Load (Trunc &amp;amp; Insert)&lt;/span&gt;&lt;/li&gt;&lt;/ul&gt;&lt;div&gt;No transformations&lt;/div&gt;&lt;div&gt;Data model: None (As-is)&lt;/div&gt;&lt;/div&gt;" style="text;html=1;align=left;verticalAlign=middle;whiteSpace=wrap;rounded=0;" vertex="1" parent="1">
          <mxGeometry x="390" y="400" width="130" height="170" as="geometry" />
        </mxCell>
        <mxCell id="C0GWXP0qGfgbLmXqxW7u-39" value="Object Type: Tables&lt;div&gt;Load:&lt;/div&gt;&lt;div&gt;&lt;ul style=&quot;margin-top: 8px; margin-bottom: 8px;&quot;&gt;&lt;li&gt;Batch Processing&lt;/li&gt;&lt;li&gt;Full Load&lt;/li&gt;&lt;li&gt;Truncate &amp;amp; Insert&lt;/li&gt;&lt;/ul&gt;&lt;div&gt;Transformations:&lt;/div&gt;&lt;/div&gt;&lt;div&gt;&lt;ul&gt;&lt;li&gt;Data cleansing&lt;/li&gt;&lt;li&gt;Data Standardisation&lt;/li&gt;&lt;li&gt;Data Normalisation&lt;/li&gt;&lt;li&gt;Derived Columns&lt;/li&gt;&lt;li&gt;Data Enrichment&lt;/li&gt;&lt;/ul&gt;&lt;div&gt;Data Model: None (as-is)&lt;/div&gt;&lt;/div&gt;" style="text;html=1;align=left;verticalAlign=middle;whiteSpace=wrap;rounded=0;spacing=1;" vertex="1" parent="1">
          <mxGeometry x="575" y="430" width="140" height="210" as="geometry" />
        </mxCell>
        <mxCell id="C0GWXP0qGfgbLmXqxW7u-41" value="Object Type: Views&lt;div&gt;No Load&lt;/div&gt;&lt;div&gt;Transformations:&lt;/div&gt;&lt;div&gt;&lt;ul&gt;&lt;li&gt;Data Integrations&lt;/li&gt;&lt;li&gt;Aggregations&lt;/li&gt;&lt;li&gt;Business Logics&lt;/li&gt;&lt;/ul&gt;&lt;div&gt;Data Model:&lt;/div&gt;&lt;/div&gt;&lt;div&gt;&lt;ul&gt;&lt;li&gt;Star Schema&lt;/li&gt;&lt;li&gt;Flat Table&lt;/li&gt;&lt;li&gt;Aggregated Table&lt;/li&gt;&lt;/ul&gt;&lt;/div&gt;" style="text;html=1;align=left;verticalAlign=top;whiteSpace=wrap;rounded=0;spacing=1;spacingTop=-2;" vertex="1" parent="1">
          <mxGeometry x="770" y="410" width="120" height="240" as="geometry" />
        </mxCell>
        <mxCell id="C0GWXP0qGfgbLmXqxW7u-42" value="" style="image;aspect=fixed;html=1;points=[];align=center;fontSize=12;image=img/lib/azure2/analytics/Power_BI_Embedded.svg;" vertex="1" parent="1">
          <mxGeometry x="1050.75" y="190" width="58.5" height="78" as="geometry" />
        </mxCell>
        <mxCell id="C0GWXP0qGfgbLmXqxW7u-43" value="" style="image;aspect=fixed;html=1;points=[];align=center;fontSize=12;image=img/lib/azure2/ai_machine_learning/Machine_Learning.svg;" vertex="1" parent="1">
          <mxGeometry x="1058" y="496" width="64" height="68" as="geometry" />
        </mxCell>
        <mxCell id="C0GWXP0qGfgbLmXqxW7u-44" value="" style="image;aspect=fixed;perimeter=ellipsePerimeter;html=1;align=center;shadow=0;dashed=0;spacingTop=3;image=img/lib/active_directory/sql_server.svg;" vertex="1" parent="1">
          <mxGeometry x="1070.75" y="370" width="38.5" height="50" as="geometry" />
        </mxCell>
      </root>
    </mxGraphModel>
  </diagram>
</mxfile>
